PathFileType  4	(X/Y/Z) C:\Users\wagnerel85475\Documents\Thesis\opencap-core\Data\3375ffbc-daeb-4a43-b4f7-ac9899cd4c71\MarkerData\PreAugmentation
DataRate	CameraRate	NumFrames	NumMarkers	Units	OrigDataRate	OrigDataStartFrame	OrigNumFrames
60.0	60.0	12	20	m	60.0	151	300
Frame#	Time	Neck			RShoulder			RElbow			RWrist			LShoulder			LElbow			LWrist			midHip			RHip			RKnee			RAnkle			LHip			LKnee			LAnkle			LBigToe			LSmallToe			LHeel			RBigToe			RSmallToe			RHeel			
		X1	Y1	Z1	X2	Y2	Z2	X3	Y3	Z3	X4	Y4	Z4	X5	Y5	Z5	X6	Y6	Z6	X7	Y7	Z7	X8	Y8	Z8	X9	Y9	Z9	X10	Y10	Z10	X11	Y11	Z11	X12	Y12	Z12	X13	Y13	Z13	X14	Y14	Z14	X15	Y15	Z15	X16	Y16	Z16	X17	Y17	Z17	X18	Y18	Z18	X19	Y19	Z19	X20	Y20	Z20	

151	2.5000000	0.7366700	1.3719300	-0.1640000	0.7692000	1.3741100	0.0245800	0.7102100	1.0673100	0.0861800	0.7754300	0.7742700	0.1592900	0.7400200	1.3718000	-0.3546600	0.6881500	1.0695600	-0.4400700	0.7748500	0.7845600	-0.4844000	0.8010200	0.8296900	-0.1629300	0.8116700	0.8397700	-0.0512000	0.7209100	0.3339000	-0.0339600	0.6863200	-0.1772400	0.0035700	0.8074100	0.8280500	-0.2708500	0.7388000	0.3496500	-0.2797700	0.6866400	-0.1821000	-0.3165200	0.9029300	-0.2247800	-0.3444300	0.8377900	-0.2269900	-0.3875900	0.6308800	-0.2341100	-0.3092400	0.8914700	-0.2357700	0.0465100	0.8273300	-0.2343600	0.0836000	0.6270900	-0.2307300	-0.0163900
152	2.5166667	0.7370500	1.3718200	-0.1637400	0.7687500	1.3713400	0.0247100	0.7009700	1.0668400	0.0831400	0.7846600	0.7685000	0.1624400	0.7404500	1.3685800	-0.3544000	0.6878100	1.0662300	-0.4403700	0.7742800	0.7841900	-0.4841000	0.8016000	0.8298300	-0.1628300	0.8114100	0.8399700	-0.0512000	0.7303400	0.3364200	-0.0307300	0.6862400	-0.1772100	0.0035200	0.8157200	0.8259400	-0.2667700	0.7467400	0.3509300	-0.2760500	0.6866800	-0.1817500	-0.3165600	0.9026700	-0.2279700	-0.3451000	0.8371900	-0.2273700	-0.3875100	0.6394300	-0.2308800	-0.3125300	0.8918900	-0.2355900	0.0464400	0.8272700	-0.2342700	0.0837700	0.6269800	-0.2306600	-0.0163300
153	2.5333333	0.7450100	1.3716900	-0.1680000	0.7689900	1.3712700	0.0244700	0.7007700	1.0666900	0.0828000	0.7855400	0.7684100	0.1621500	0.7404100	1.3680000	-0.3546200	0.6882400	1.0663300	-0.4401700	0.7750000	0.7844300	-0.4843500	0.8094200	0.8305200	-0.1669600	0.8114700	0.8367700	-0.0510900	0.7385200	0.3483100	-0.0350800	0.6868300	-0.1735600	0.0028700	0.8162200	0.8258000	-0.2668300	0.7455700	0.3572900	-0.2767700	0.6866100	-0.1820700	-0.3165200	0.9026200	-0.2281900	-0.3450800	0.8376800	-0.2307200	-0.3869600	0.6308100	-0.2341300	-0.3091500	0.8990600	-0.2327100	0.0423400	0.8273300	-0.2313700	0.0829700	0.6276200	-0.2281700	-0.0171100
154	2.5500000	0.7457600	1.3676800	-0.1677500	0.7770700	1.3670200	0.0203700	0.7006200	1.0636100	0.0830900	0.7928800	0.7695200	0.1580300	0.7406600	1.3647900	-0.3544000	0.6879600	1.0662800	-0.4404000	0.7745300	0.7804000	-0.4843300	0.8098400	0.8307100	-0.1668400	0.8119600	0.8358800	-0.0514700	0.7386300	0.3417200	-0.0352400	0.6868400	-0.1734200	0.0028400	0.8156200	0.8257900	-0.2667600	0.7454000	0.3570100	-0.2767100	0.6866900	-0.1816900	-0.3165300	0.9025400	-0.2280300	-0.3450900	0.8370900	-0.2274300	-0.3874900	0.6300100	-0.2341200	-0.3086700	0.8996400	-0.2324500	0.0422200	0.8352700	-0.2281800	0.0788300	0.6274900	-0.2280500	-0.0170100
155	2.5666667	0.7452100	1.3676300	-0.1679400	0.7600600	1.3672100	0.0212700	0.7003200	1.0634400	0.0829000	0.7938100	0.7694100	0.1578100	0.7401400	1.3647300	-0.3547300	0.6969600	1.0701500	-0.4360100	0.7753200	0.7806500	-0.4845200	0.8095400	0.8305100	-0.1669100	0.8114900	0.8367900	-0.0510100	0.7385300	0.3450500	-0.0346100	0.6868700	-0.1735600	0.0029100	0.8162500	0.8259200	-0.2668200	0.7467100	0.3587600	-0.2761600	0.6866800	-0.1819900	-0.3165000	0.9026000	-0.2281700	-0.3450700	0.8376900	-0.2271500	-0.3876400	0.6308600	-0.2340400	-0.3091500	0.8990300	-0.2326000	0.0423100	0.8272600	-0.2313200	0.0829400	0.6273100	-0.2306100	-0.0164400
156	2.5833333	0.7372400	1.3677000	-0.1638400	0.7597400	1.3671200	0.0213400	0.7007200	1.0634500	0.0831000	0.8014400	0.7706900	0.1535700	0.7405700	1.3647300	-0.3544300	0.6967100	1.0667400	-0.4361200	0.7746800	0.7803700	-0.4842500	0.8099000	0.8306900	-0.1668000	0.8111700	0.8369900	-0.0509600	0.7386700	0.3454200	-0.0347100	0.6864800	-0.1771600	0.0035200	0.8156300	0.8257500	-0.2667300	0.7459100	0.3612600	-0.2764200	0.6867800	-0.1817800	-0.3165400	0.9026100	-0.2280300	-0.3451100	0.8371400	-0.2309700	-0.3868000	0.6394100	-0.2309100	-0.3125400	0.8918300	-0.2353800	0.0464500	0.8272700	-0.2311800	0.0831800	0.6273100	-0.2306500	-0.0163900
157	2.6000000	0.7368400	1.3676800	-0.1640000	0.7600000	1.3671000	0.0212600	0.7005000	1.0632600	0.0828900	0.8101100	0.7718200	0.1487600	0.7401900	1.3646800	-0.3547400	0.6971800	1.0700400	-0.4359300	0.7835600	0.7817100	-0.4803000	0.8185200	0.8283000	-0.1629500	0.8120100	0.8326600	-0.0511500	0.7388700	0.3413100	-0.0350000	0.6865500	-0.1807300	0.0042000	0.8165200	0.8259100	-0.2666700	0.7460000	0.3614300	-0.2765000	0.6868800	-0.1819100	-0.3164600	0.9027800	-0.2246500	-0.3444800	0.8377500	-0.2306500	-0.3869100	0.6312500	-0.2340300	-0.3090900	0.8912400	-0.2355700	0.0465400	0.8271000	-0.2314300	0.0830800	0.6276500	-0.2307400	-0.0164500
158	2.6166667	0.7455900	1.3675500	-0.1677800	0.7596900	1.3671100	0.0213400	0.7105000	1.0639500	0.0862800	0.8345300	0.7823100	0.1429200	0.7406600	1.3647100	-0.3544300	0.6968700	1.0699900	-0.4361100	0.7909700	0.7823700	-0.4758300	0.8190900	0.8285100	-0.1628700	0.8119000	0.8329500	-0.0511100	0.7389300	0.3422900	-0.0343000	0.6864500	-0.1839800	0.0047400	0.8244400	0.8271200	-0.2704800	0.7466600	0.3586100	-0.2761400	0.6868700	-0.1817200	-0.3165200	0.9025800	-0.2279700	-0.3451400	0.8371900	-0.2274000	-0.3875000	0.6396100	-0.2308500	-0.3125200	0.8915800	-0.2354200	0.0465400	0.8271600	-0.2312500	0.0832200	0.6275100	-0.2306700	-0.0164300
159	2.6333333	0.7365600	1.3647700	-0.1640200	0.7597500	1.3670000	0.0213100	0.7102900	1.0638400	0.0860500	0.8351800	0.7852100	0.1425000	0.7402200	1.3646500	-0.3547600	0.7060000	1.0704400	-0.4316900	0.7919300	0.7827500	-0.4759000	0.8184700	0.8313700	-0.1631400	0.8116400	0.8367500	-0.0509400	0.7479500	0.3471300	-0.0312700	0.6865500	-0.1840100	0.0048100	0.8165300	0.8258900	-0.2666900	0.7469800	0.3587900	-0.2761800	0.6870800	-0.1854400	-0.3171300	0.9025900	-0.2281300	-0.3450600	0.8376400	-0.2306800	-0.3869300	0.6405400	-0.2308000	-0.3130000	0.8911100	-0.2356200	0.0465500	0.8270400	-0.2344700	0.0836700	0.6274900	-0.2307900	-0.0164400
160	2.6500000	0.7369800	1.3647400	-0.1638600	0.7594100	1.3669700	0.0213200	0.7105700	1.0640900	0.0862600	0.8350000	0.7854900	0.1426600	0.7407300	1.3647100	-0.3544100	0.7059000	1.0703800	-0.4318300	0.7995100	0.7833600	-0.4714000	0.8188800	0.8286000	-0.1628800	0.8113800	0.8369900	-0.0509200	0.7481300	0.3475800	-0.0314000	0.6863200	-0.1806400	0.0041500	0.8158300	0.8259300	-0.2666900	0.7466900	0.3586800	-0.2761700	0.6870700	-0.1852200	-0.3171300	0.9025400	-0.2280300	-0.3451200	0.8372000	-0.2275000	-0.3874800	0.6396700	-0.2308500	-0.3125200	0.8837500	-0.2356000	0.0428400	0.8272600	-0.2312400	0.0831200	0.6272400	-0.2307000	-0.0163200
161	2.6666667	0.7364900	1.3647400	-0.1640100	0.7596000	1.3669000	0.0212300	0.7102300	1.0638800	0.0860700	0.8430200	0.7903700	0.1383000	0.7403600	1.3646700	-0.3547300	0.7066100	1.0668900	-0.4316700	0.8085700	0.7846300	-0.4674200	0.8098500	0.8273600	-0.1666600	0.8120000	0.8326500	-0.0511600	0.7479100	0.3470200	-0.0312800	0.6866300	-0.1773000	0.0035800	0.8165100	0.8256900	-0.2667700	0.7469200	0.3588900	-0.2762000	0.6871200	-0.1855000	-0.3171100	0.9025300	-0.2281800	-0.3451200	0.8375600	-0.2307700	-0.3869800	0.6494700	-0.2276500	-0.3091200	0.8990700	-0.2325700	0.0423700	0.8272100	-0.2314000	0.0829900	0.6273800	-0.2307500	-0.0163800
162	2.6833333	0.7369700	1.3647300	-0.1638500	0.7594100	1.3669400	0.0213200	0.7105300	1.0640800	0.0863000	0.8427400	0.7936400	0.1382900	0.7406800	1.3646900	-0.3543800	0.7148800	1.0673100	-0.4276600	0.8160100	0.7887700	-0.4627300	0.8102800	0.8275700	-0.1666600	0.8118200	0.8328700	-0.0511500	0.7481200	0.3406100	-0.0313800	0.6862500	-0.1839800	0.0048500	0.8243500	0.8267500	-0.2706600	0.7468600	0.3587500	-0.2761500	0.6870100	-0.1816800	-0.3165200	0.9022900	-0.2280300	-0.3451200	0.8370500	-0.2274500	-0.3875400	0.6486800	-0.2275400	-0.3087000	0.8919700	-0.2354100	0.0464900	0.8274500	-0.2342600	0.0838000	0.6271800	-0.2307600	-0.0162700
